<svg width="24" height="24" viewBox="0 0 46 45" fill="none" xmlns="http://www.w3.org/2000/svg">
<path fill-rule="evenodd" clip-rule="evenodd" d="M24.4765 28.9612C24.7912 29.5044 27.3655 31.906 27.9947 32.5635C28.9672 33.5642 31.3127 35.251 30.7693 36.7662C30.4546 37.5953 29.6251 38.2814 28.6526 38.1957C27.8231 38.1099 27.1366 37.2522 26.5646 36.6804C26.0497 36.1658 23.2466 33.1925 22.9034 33.1639C22.4457 33.1353 19.7856 36.1086 19.2422 36.6518C18.7273 37.1665 17.955 38.1099 17.2113 38.1957C16.2102 38.31 15.3807 37.7097 15.0375 36.7948C14.4368 35.2224 16.7823 33.5928 17.7834 32.5921C18.8417 31.5343 20.4435 30.1048 21.3302 28.9898C19.4424 28.7039 17.9836 28.5038 16.2674 27.5889C15.0661 26.96 12.9495 25.6734 13.5787 24.0438C13.8934 23.2433 14.5512 22.6429 15.4665 22.7001C16.3246 22.7573 16.9825 23.3291 17.669 23.7579C20.7867 25.5305 24.9056 25.5591 27.9947 23.7865C29.3391 23.0432 31.1125 21.6423 32.085 23.9867C32.8001 25.6449 30.7406 26.8742 29.5107 27.5604C27.8231 28.4752 26.2785 28.6753 24.4479 28.9898L24.4765 28.9612ZM21.8451 0.0571792H24.0475C28.8528 0.314485 33.6582 2.17281 37.3194 5.26048C39.293 6.94727 40.952 8.83418 42.2677 11.0642C43.2402 12.7224 45.1281 16.9822 45.1281 18.9835L45.1567 19.0693V19.1264C45.1567 19.155 45.1567 19.1836 45.1567 19.1836C45.1853 19.2408 45.1567 19.2122 45.1853 19.2408V19.3266V19.3837L45.2139 19.4123V19.6125L45.2425 19.641L45.2711 20.1557C45.2711 20.27 45.2425 20.27 45.2997 20.3272V20.4415C45.2997 20.5559 45.2711 20.5559 45.3283 20.6131V20.7846V20.9848L45.3569 21.0133V24.0152L45.3283 24.0438V24.244V24.4155C45.2711 24.4727 45.2997 24.5013 45.2997 24.587V24.7014C45.2425 24.7586 45.2711 24.7872 45.2711 24.8729L45.2425 25.3875L45.2139 25.4161V25.6163L45.1853 25.6449V25.702V25.7878C45.1567 25.8164 45.1853 25.7878 45.1567 25.845C45.1567 25.8736 45.1567 25.8736 45.1567 25.9022V25.9593L45.1281 26.0451C45.1281 27.9892 43.3261 32.1919 42.2677 33.993C40.952 36.223 39.2644 38.1385 37.3194 39.7967C33.6296 42.913 28.8242 44.7713 23.9903 45H21.8737C21.5876 44.9714 21.3016 44.9714 21.0156 44.9428C9.28824 43.8564 0.364044 34.3075 0.364044 22.5C0.364044 10.5781 9.37405 1.14358 21.0442 0.0571792C21.3016 0.0285896 21.5876 0 21.8451 0V0.0571792ZM14.9517 14.9524C14.8373 14.2662 15.3235 12.3793 15.6382 11.6931C16.9253 8.86277 19.5854 6.91868 22.7604 6.94727C27.1652 6.94727 30.8265 10.3494 30.7979 14.7522C30.7693 19.5553 27.3941 22.4142 22.9892 22.7573C21.0728 22.9003 18.7273 21.8424 17.3543 20.4987C16.7251 19.8698 16.0672 19.0121 15.724 18.183C15.0947 16.7535 15.2091 16.3532 14.9803 14.9524H14.9517Z" fill="#2D4652"/>
<path fill-rule="evenodd" clip-rule="evenodd" d="M22.5029 10.9498C17.4402 11.4358 18.098 19.155 23.2752 18.669C28.2522 18.2116 27.7087 10.4638 22.5029 10.9498Z" fill="#2D4652"/>
</svg>
