<svg width="28" height="24" viewBox="0 0 60 35" fill="none" xmlns="http://www.w3.org/2000/svg">
<path fill-rule="evenodd" clip-rule="evenodd" d="M0.0365408 1.57301C0.0365408 3.46777 1.09622 6.25629 1.7905 7.9008C2.44823 9.47381 3.69062 12.2623 4.60414 13.7281L5.66383 15.5871C5.77345 15.8016 5.88307 15.9446 6.02923 16.1591C6.50426 16.9814 7.05238 17.7321 7.52741 18.5544L10.3045 22.5584C12.8258 26.1334 16.7722 29.7799 20.609 31.6389C22.5091 32.5685 24.2266 33.2835 26.3459 33.7482C27.296 33.9627 28.5384 34.1057 29.7808 34.1772H31.5713C32.0828 34.1415 32.5579 34.1057 32.9963 33.9985C33.581 33.8912 34.0195 33.7482 34.4214 33.4622C35.2619 32.8545 35.1157 31.6032 35.1157 30.2089C35.1157 28.9219 35.1157 27.5992 35.1157 26.3122C35.1157 25.6329 35.1157 25.0252 35.2984 24.5604C35.408 24.3459 35.5907 24.1672 35.81 24.0957C37.7101 23.3449 40.0853 25.3112 41.4373 26.3837L42.8624 27.5992C43.5566 28.1712 44.799 29.5654 45.5298 30.2447C45.676 30.3877 45.7491 30.4949 45.8953 30.6379L46.6626 31.4244C46.8088 31.5674 46.8819 31.6747 47.028 31.8535C48.0512 32.8902 49.1108 34.1772 50.7917 34.1772H57.8441C58.9403 34.1772 60 33.6052 60 32.5685V32.2825C60 30.7452 57.8441 28.0639 56.6748 26.7769L54.4823 24.3102C54.0804 23.8097 52.8745 22.5941 52.3995 22.1651C52.2534 22.0221 52.1437 21.9506 51.961 21.8076C51.3033 21.1641 49.1839 19.3409 49.1839 18.4114C49.1839 17.4461 49.7686 16.8026 50.3532 16.0161C51.5225 14.4788 53.3496 11.7261 54.3727 10.1888C55.2497 8.83031 58.7576 3.61077 58.7576 1.46576C58.7576 0.429003 57.8441 0 56.8575 0H49.8051C48.2704 0 47.5761 0.893756 47.0646 1.96626L45.5298 5.11228C44.9086 6.32779 44.2144 7.5433 43.4836 8.72305C42.5335 10.2961 41.5104 11.7618 40.3776 13.1561L39.3179 14.4073C38.8063 14.9793 38.1851 15.5156 37.5639 15.9804C37.0889 16.3379 36.6504 16.5524 35.9562 16.5524C35.6273 16.5524 35.408 16.2306 35.2984 16.0161C34.8965 15.3011 35.0426 13.5493 35.0426 12.6913V3.11027C35.0426 1.75176 35.1523 0 33.3618 0H22.7284C21.8149 0 21.1937 0.715005 21.1937 1.57301C21.1937 2.25226 21.8514 2.78852 22.2168 3.25327L22.9111 4.25428C23.3861 5.04078 23.7881 6.50654 23.7881 7.72205V17.1959C23.7881 18.1254 23.6784 19.2336 22.7284 19.2336C21.5956 19.2336 20.5359 18.0539 19.8782 17.3031C18.8185 16.1234 17.905 14.8006 17.0646 13.4778C15.3471 10.6893 13.849 7.72205 12.6066 4.68328C12.2412 3.75377 11.4738 1.17976 10.6699 0.536253C10.3045 0.250252 9.7564 0 9.1352 0H1.90012C0.91352 0 0 0.500503 0 1.57301H0.0365408Z" fill="#2D4652"/>
</svg>
