<svg width="24" height="24" viewBox="0 0 46 47" fill="none" xmlns="http://www.w3.org/2000/svg">
<path fill-rule="evenodd" clip-rule="evenodd" d="M27.7191 27.8697C24.1802 31.5261 23.9224 36.0787 23.6176 46.0573C32.9164 46.0573 39.3376 46.022 42.6541 42.8052C45.8709 39.489 45.9004 32.7622 45.9004 23.7687C35.9276 24.091 31.3694 24.3305 27.7191 27.8697ZM0.841782 23.7687C0.841782 32.7629 0.876881 39.4887 4.09378 42.8052C7.41013 46.022 13.8321 46.0573 23.1303 46.0573C22.808 36.0787 22.5678 31.5261 19.0287 27.8697C15.3724 24.3306 10.8202 24.0736 0.841782 23.7687ZM23.1297 0.998131C13.8484 0.998131 7.40968 1.02743 4.09318 4.25013C0.876435 7.56649 0.841187 14.2872 0.841187 23.2866C10.8196 22.9644 15.3724 22.7241 19.0287 19.1792C22.5678 15.5288 22.8249 10.9764 23.1297 0.998131ZM27.7181 19.1792C24.1791 15.5288 23.9214 10.976 23.6166 0.997681C32.9154 0.997681 39.3366 1.02698 42.6531 4.24968C45.8699 7.56604 45.8991 14.2868 45.8991 23.2862C35.9266 22.9639 31.3684 22.7241 27.7181 19.1792Z" fill="#2D4652"/>
<path fill-rule="evenodd" clip-rule="evenodd" d="M45.895 23.7693V23.2888C35.9222 22.9666 31.3638 22.7263 27.7135 19.1814C24.1744 15.531 23.9166 10.9782 23.6118 0.999878H23.1255C22.8033 10.9783 22.563 15.5311 19.0239 19.1814C15.3677 22.7263 10.8149 22.9842 0.836426 23.2888V23.7693C10.8149 24.0916 15.3677 24.3318 19.0239 27.8708C22.563 31.5272 22.8207 36.08 23.1255 46.0584H23.6118C23.9341 36.08 24.1744 31.5272 27.7135 27.8708C31.3638 24.3318 35.9225 24.0741 45.895 23.7693Z" fill="white"/>
</svg>
