<svg width="26" height="24" viewBox="0 0 61 45" fill="none" xmlns="http://www.w3.org/2000/svg">
<path fill-rule="evenodd" clip-rule="evenodd" d="M25.5062 13.1961C26.2826 13.0296 26.6153 13.321 27.1698 13.6124C28.3898 14.2368 30.0903 15.1943 31.3103 15.9019C32.1236 16.3599 33.2696 17.0259 34.046 17.4422C34.9702 17.9001 35.8574 18.4829 36.7816 18.9408C37.2253 19.1906 39.2216 20.2729 39.5173 20.481C40.3676 21.0638 40.7373 22.4792 39.924 23.5199C39.6282 23.8945 39.1476 24.1443 38.6301 24.3941C38.1865 24.6438 37.7059 24.8936 37.2622 25.1434L27.6504 30.4718C27.2438 30.6799 26.6892 31.0546 26.2456 31.1795C25.0256 31.4709 23.9905 30.4718 23.9166 29.3478C23.8796 28.6818 23.9166 27.8076 23.9166 27.0999V20.4394C23.9166 18.9408 23.9166 17.4838 23.9166 15.9852C23.9166 15.2359 23.8796 14.6531 24.2493 14.1119C24.5081 13.6957 24.8778 13.3626 25.5062 13.2377V13.1961ZM0.811218 12.7798L0.885155 31.8039L1.03303 33.1776C1.10697 33.8853 1.25484 34.5097 1.32878 35.2174L1.69846 36.7993C2.28996 38.7142 2.65965 39.2969 3.69477 40.7539C4.28626 41.5865 5.5432 42.5439 6.39347 42.9602C6.50438 43.0435 6.61528 43.0851 6.72619 43.1267C7.05891 43.3349 7.35466 43.4181 7.72434 43.5846C7.98312 43.7095 8.16797 43.7512 8.42675 43.8344C9.12915 44.0842 9.97943 44.2923 10.7188 44.4588C12.789 44.8751 14.7114 45 16.8556 45L47.5025 44.9584L49.314 44.7919C49.9794 44.7502 51.0885 44.5837 51.7539 44.4172L52.5672 44.2507C54.009 43.876 55.4138 43.2516 56.5968 42.3358C56.8186 42.1693 56.9665 42.0444 57.1513 41.8779L57.7428 41.2535C58.0016 40.9204 58.2604 40.5874 58.4822 40.2544C59.0367 39.3802 59.4434 38.4228 59.7761 37.4237C60.0349 36.5911 60.2197 35.7586 60.3676 34.8844C60.6633 32.9695 60.8112 31.2627 60.8112 29.3062V14.3201C60.8112 13.4459 60.8112 12.6133 60.7373 11.7808C60.5894 10.2405 60.6264 9.40796 60.2567 7.82609C60.1828 7.53469 60.1458 7.32655 60.0718 7.07678L59.6282 5.74468C59.5913 5.6198 59.5543 5.53654 59.4804 5.41166C59.2955 4.99537 58.8149 4.24607 58.5561 3.91304L57.9646 3.24699C57.4101 2.70583 56.8186 2.24792 56.1532 1.87327C56.1162 1.83164 56.0423 1.83164 56.0053 1.79001L54.5635 1.16559C54.009 0.957447 53.4175 0.832562 52.863 0.66605C52.1606 0.499537 51.3473 0.374653 50.6449 0.291397C49.9055 0.208141 49.0922 0.124884 48.3158 0.0832562C48.131 0.0832562 48.094 0.0416281 47.9092 0.0416281C47.7613 0.0416281 47.6134 0.0416281 47.4656 0.0416281C47.2068 0 46.911 0 46.6153 0H15.0811C14.5266 0 13.972 0 13.4914 0.0832562L12.7151 0.124884C12.0866 0.124884 10.46 0.374653 9.79458 0.499537L8.46371 0.790934C7.61344 0.957447 6.68922 1.29047 5.94985 1.66512C5.76501 1.74838 5.58016 1.87327 5.39532 1.95652C4.91473 2.20629 4.43414 2.53932 4.02748 2.91397L3.69477 3.24699C3.62083 3.33025 3.6578 3.28862 3.58386 3.37188L3.43599 3.53839C3.43599 3.53839 3.43599 3.53839 3.39902 3.53839C2.99236 3.95467 2.69662 4.45421 2.3639 4.95375C2.32693 5.037 2.32693 4.99537 2.28996 5.07863C2.25299 5.16189 2.25299 5.16189 2.21602 5.24514C1.73543 6.20259 1.43968 7.20166 1.25484 8.284C1.07 9.28307 0.922124 10.4487 0.922124 11.4894C0.922124 11.9889 0.848187 12.3636 0.848187 12.8215L0.811218 12.7798Z" fill="#2D4652"/>
<path fill-rule="evenodd" clip-rule="evenodd" d="M25.5062 13.1961C24.8778 13.321 24.5081 13.6957 24.2493 14.0703C23.9166 14.6115 23.9166 15.1943 23.9166 15.9436C23.9166 17.4422 23.9166 18.8992 23.9166 20.3978V27.0583C23.9166 27.766 23.8796 28.6402 23.9166 29.3062C23.9905 30.4302 25.0256 31.4292 26.2456 31.1378C26.6892 31.0546 27.2807 30.6383 27.6504 30.4302L37.2622 25.1018C37.7059 24.852 38.1864 24.5606 38.6301 24.3525C39.1476 24.1027 39.6282 23.8113 39.924 23.4783C40.7373 22.4376 40.3676 21.0222 39.5173 20.4394C39.1846 20.2313 37.2253 19.1489 36.7816 18.8992C35.8574 18.3996 34.9702 17.8585 34.046 17.4006C33.2327 16.9843 32.1236 16.3182 31.3103 15.8603C30.0903 15.1943 28.4267 14.2368 27.1698 13.5708C26.6153 13.2794 26.2826 12.988 25.5062 13.1545V13.1961Z" fill="white"/>
</svg>
