<svg width="24" height="24" viewBox="0 0 45 45" fill="none" xmlns="http://www.w3.org/2000/svg">
<path fill-rule="evenodd" clip-rule="evenodd" d="M19.8661 28.3708V28.5393C19.7821 28.4831 19.8661 28.5955 19.8101 28.4551C19.7821 28.3989 19.7821 28.3989 19.7821 28.3427L18.269 23.3427L28.4122 16.8539C28.6644 16.7135 28.8885 16.5449 29.1407 16.4045C29.2528 16.3202 29.3929 16.236 29.505 16.1798C29.6731 16.0955 29.7852 16.1236 29.8973 16.264V16.4326C29.6731 16.6292 29.0567 17.2191 28.8045 17.4157L27.7397 18.3708C27.4875 18.5955 27.2634 18.8202 27.0392 19.0169C26.9832 19.073 26.9271 19.1292 26.8711 19.1854L22.7242 22.9494C22.6121 23.0618 22.472 23.1742 22.3599 23.2865C22.2198 23.427 22.1357 23.4831 22.0237 23.5955L21.127 24.4101C21.043 24.4944 21.043 24.5225 20.9589 24.5787C20.8188 24.691 20.7347 24.8034 20.5946 24.9157C20.1183 25.309 20.2304 25.2247 20.1743 25.8708C20.0903 26.6854 20.0342 27.5562 19.9502 28.3427L19.8661 28.3708ZM28.5243 31.4607L28.4402 31.4045L27.9359 31.0393C27.8798 30.9831 27.8518 30.9831 27.7958 30.927C27.5716 30.7865 27.4035 30.618 27.1793 30.4775L23.3966 27.7247L22.3319 28.7079C22.0237 28.9888 20.5386 30.4775 20.2024 30.6461C19.9502 30.7584 19.642 30.7303 19.4178 30.5899C19.1936 30.4494 19.1376 30.2809 19.0535 29.9719C18.8854 29.4382 18.6893 28.9607 18.5492 28.4551C18.4091 27.9213 18.1849 27.4438 18.0448 26.9382C17.7927 26.0393 17.2883 24.7753 17.0361 23.9045C16.5037 23.7079 15.8873 23.5674 15.3549 23.3708C15.1027 23.2865 14.7665 23.1742 14.5143 23.118L12.0486 22.3315C11.6843 22.2191 11.5442 22.1629 11.4041 21.8539C11.264 21.573 11.3761 21.2079 11.5722 21.0674L11.6563 20.9831C11.8244 20.8146 13.6737 20.1966 14.122 20.0281C14.5423 19.8596 14.9346 19.7191 15.3549 19.5506L22.8923 16.7416C23.9851 16.3764 25.5262 15.7022 26.6469 15.3371C27.3474 15.1124 29.0567 14.4382 29.7852 14.1573L31.6625 13.4551C32.0828 13.2865 32.5031 13.1461 32.9514 12.9775C33.2316 12.8933 33.3157 12.809 33.5959 13.0056C33.736 13.0899 33.9041 13.2584 33.9602 13.4831C34.0162 13.736 33.2316 17.0787 33.1196 17.7809C32.9795 18.6236 32.6993 19.7472 32.5311 20.618L31.0461 27.7247C30.8499 28.6798 30.6538 29.6629 30.4577 30.5899C30.3456 31.1236 30.2615 31.4888 29.8412 31.6854C29.4209 31.882 28.7765 31.7697 28.5803 31.4607H28.5243ZM21.7435 0H21.8555C22.0517 0 22.2478 0 22.444 0L24.2933 0.0280899C24.6295 0.0280899 24.9097 0.0842697 25.246 0.11236L26.4788 0.280899L29.0286 0.870787C29.1127 0.898876 29.1968 0.926966 29.2808 0.955056C29.3929 0.983146 29.4489 0.983146 29.561 1.03933C29.7291 1.09551 29.8973 1.17978 30.0654 1.20787C30.2615 1.26405 30.4016 1.32022 30.5697 1.40449C30.6258 1.43258 30.6538 1.46067 30.7098 1.46067C31.0461 1.57303 31.0461 1.60112 31.3263 1.71348L32.0268 2.02247C32.1108 2.07865 32.1669 2.10674 32.2509 2.13483C32.391 2.2191 32.5872 2.27528 32.7273 2.35955L33.3997 2.72472C33.4838 2.75281 33.5399 2.80899 33.6239 2.86517C33.708 2.92135 33.764 2.94944 33.8481 3.00562L34.4925 3.39888C34.5766 3.45506 34.6326 3.48315 34.7167 3.51124L35.3331 3.93258C35.7534 4.18539 36.1177 4.55056 36.51 4.80337C36.594 4.85955 36.622 4.88764 36.7061 4.94382C36.7621 4.97191 36.7621 4.97191 36.8182 5.02809L37.8269 5.92697C38.1912 6.23596 38.5274 6.60112 38.8636 6.9382L39.1999 7.30337C39.312 7.41573 39.424 7.52809 39.5361 7.66854L39.7883 7.97753C39.8443 8.0618 39.8163 7.97753 39.8724 8.0618L41.3574 10.0281C41.4134 10.1124 41.4415 10.1685 41.4975 10.2528L42.3941 11.7978C42.4502 11.882 42.4782 11.9101 42.5342 12.0225L42.8705 12.7247C42.8985 12.809 42.9545 12.8652 42.9826 12.9494C43.0106 13.0337 43.0666 13.0899 43.0946 13.1742L43.7951 14.9157C43.8232 15.0281 43.8232 15.0843 43.8512 15.1966L44.1874 16.236C44.2435 16.4326 44.5237 17.4157 44.5237 17.6124C44.5517 17.9213 44.6357 18.1742 44.6918 18.4831L44.8599 19.7191C44.8879 20.1404 45 20.5337 45 20.9831V23.9326C45 24.4101 44.972 24.7753 44.8879 25.2247L44.4676 27.6124C44.3836 27.9213 44.2995 28.1461 44.2435 28.4551C44.2154 28.736 44.0473 28.9888 43.9913 29.2416C43.9352 29.4663 43.8792 29.5787 43.8232 29.7753L43.2628 31.2921C43.1507 31.6011 42.9545 31.9382 42.8144 32.2472C42.7864 32.3034 42.7864 32.3315 42.7584 32.3876L42.0859 33.6236C41.9739 33.8483 41.8618 34.073 41.6936 34.2697C41.6376 34.3539 41.6096 34.4101 41.5816 34.4944C41.5536 34.5787 41.4975 34.6348 41.4415 34.7191C41.1052 35.1966 40.769 35.6742 40.4328 36.1517C40.3767 36.2079 40.3487 36.2921 40.2927 36.3483L39.1719 37.6685C38.6955 38.1461 38.2472 38.6236 37.7709 39.073C37.6868 39.1573 37.6588 39.1573 37.5747 39.2416C37.4907 39.3258 37.4907 39.3258 37.3786 39.4101L37.0984 39.6629C37.0704 39.691 37.0423 39.7191 37.0143 39.7472C36.9303 39.8315 36.9022 39.8315 36.8182 39.9157L35.0249 41.264C34.8568 41.4045 34.5205 41.5449 34.3804 41.6573C34.1843 41.8258 33.0915 42.4157 32.8113 42.5281L29.3369 43.9607C29.0847 44.0169 28.8045 44.1573 28.5243 44.2135C28.2441 44.2416 27.9639 44.3539 27.6837 44.4382L25.302 44.8596C24.7976 44.9157 23.9851 44.9719 23.4247 45H21.7715C21.5473 45 21.4072 44.9719 21.155 44.9719C20.4545 44.9719 19.9222 44.8876 19.2497 44.7753C19.1656 44.7753 19.0535 44.7472 18.9415 44.7191C18.5772 44.6629 18.6052 44.691 18.0448 44.5506C17.8487 44.4944 17.6526 44.4944 17.4564 44.4382C17.1762 44.3539 16.896 44.2697 16.6158 44.2135C16.3636 44.1854 16.0554 44.0169 15.8032 43.9607C15.5791 43.9045 15.467 43.8483 15.2709 43.7921L12.5529 42.6685C12.4408 42.6124 12.4689 42.5843 12.3288 42.5281C12.2167 42.4719 12.1887 42.4719 12.0766 42.4157L11.4041 42.0225C11.18 41.9101 10.9558 41.7978 10.7316 41.6292C10.5355 41.4888 10.2833 41.3764 10.0872 41.236C10.0031 41.1798 10.0031 41.1517 9.89103 41.0955C9.52677 40.8708 9.21856 40.618 8.88232 40.3652C8.60212 40.1685 8.34994 39.9719 8.09776 39.7472L7.53736 39.2416C7.4533 39.1573 7.42528 39.1573 7.34122 39.073C6.83686 38.5674 6.24844 38.0899 5.80012 37.5C5.74408 37.4438 5.68805 37.3876 5.63201 37.3315C5.54795 37.2472 5.54795 37.2191 5.46389 37.1348C5.37983 37.0506 5.37983 37.0225 5.29577 36.9382L4.95953 36.573C4.90349 36.4888 4.87547 36.4326 4.81943 36.3764L3.50249 34.5506C3.44645 34.4663 3.44645 34.4101 3.36239 34.3258C3.30635 34.2135 3.27833 34.2135 3.22229 34.1292C3.16625 34.0449 3.13823 33.9607 3.11021 33.9045C2.71793 33.2303 2.24159 32.4719 1.98941 31.7135C1.96139 31.6292 1.96139 31.6573 1.93337 31.6011C1.76526 31.264 1.37298 30.2528 1.23288 29.8315C1.17684 29.6348 1.09278 29.5225 1.03674 29.3258C1.00872 29.2135 0.980697 29.1292 0.952677 29.0449C0.924658 28.9607 0.896638 28.8764 0.868618 28.7921L0.644458 27.9494C0.616438 27.8652 0.588418 27.7809 0.560399 27.6685C0.504359 27.5 0.504359 27.2753 0.448319 27.0787C0.336239 26.6854 0.308219 26.2921 0.224159 25.8989C0.11208 25.2809 0.0280199 24.6348 0.0280199 24.0169L0 22.2472C0 21.3202 0.0280199 20.3933 0.1401 19.6067C0.224159 19.0449 0.280199 18.4831 0.420299 17.9494L0.756538 16.4326C0.784558 16.264 0.896638 16.0955 0.952677 15.927C0.980697 15.8427 0.980697 15.7584 1.03674 15.6461L1.20486 15.1124C1.23288 15.0281 1.2609 14.9438 1.28892 14.8315C1.31694 14.7191 1.34496 14.6629 1.401 14.5787L1.59714 14.073C1.70922 13.8483 1.76526 13.5393 1.90535 13.3427C1.98941 13.2022 1.93337 13.2584 1.98941 13.118C2.10149 12.7809 2.60585 11.882 2.80199 11.4888L3.19427 10.8146C3.27833 10.6742 3.39041 10.5618 3.47447 10.3933C3.53051 10.309 3.55853 10.2528 3.61457 10.1966C3.67061 10.1404 3.64259 10.1404 3.69863 10.0843C3.72665 10.0281 3.72665 10.0281 3.75467 10C3.81071 9.91573 3.83873 9.88764 3.89477 9.80337C4.03487 9.57865 4.17497 9.41011 4.31507 9.21348L6.0523 7.10674C6.1924 6.91011 6.38854 6.76966 6.55666 6.60112C6.66874 6.48876 6.78082 6.3764 6.8929 6.26405L7.25716 5.92697C7.34122 5.8427 7.36924 5.8427 7.4533 5.75843C7.50934 5.70225 7.56538 5.64607 7.62142 5.58989L10.3954 3.51124C10.4795 3.48315 10.5635 3.42697 10.6196 3.37079C10.7036 3.31461 10.7036 3.28652 10.8157 3.23034C11.3761 2.94944 12.0486 2.47191 12.637 2.24719C12.8051 2.19101 12.9172 2.07865 13.0853 2.02247L13.3375 1.91011C13.7298 1.68539 14.1781 1.60112 14.5704 1.40449C14.9066 1.23596 15.5791 1.09551 15.8873 0.983146C16.0274 0.926966 16.2516 0.842697 16.3917 0.814607C16.5598 0.786517 16.5318 0.814607 16.6719 0.758427C17.0922 0.617978 17.4564 0.589888 17.7927 0.505618C17.9888 0.449438 18.1849 0.421348 18.3531 0.365169C18.5492 0.337079 18.7453 0.308989 18.9695 0.280899C19.5859 0.168539 20.2304 0.0842697 20.8468 0.0842697C20.9589 0.0842697 21.099 0.0842697 21.1831 0.0842697C21.2951 0.0842697 21.3232 0.0561798 21.4633 0.0561798L21.7435 0Z" fill="#2D4652"/>
</svg>
